<svg viewBox="0 0 1280 640" xmlns="http://www.w3.org/2000/svg">
  <defs>
    <linearGradient id="shelfBgN" x1="0" y1="0" x2="0" y2="1">
      <stop offset="0%" stop-color="#8B5A2B"/>
      <stop offset="100%" stop-color="#7A4F2C"/>
    </linearGradient>
  </defs>

  <rect width="1280" height="640" fill="url(#shelfBgN)"/>

  <rect x="0" y="150" width="1280" height="16" fill="#5F3B1E"/>
  <rect x="0" y="330" width="1280" height="16" fill="#5F3B1E"/>
  <rect x="0" y="500" width="1280" height="16" fill="#5F3B1E"/>

  <!-- Row 1 (0-150) -->
  <g>
    <rect x="560" y="14" width="30" height="130" fill="#4FA8A0"/>
    <rect x="592" y="6" width="26" height="138" fill="#E8A33D"/>
    <rect x="620" y="20" width="30" height="124" fill="#B23A3A"/>
    <rect x="652" y="10" width="24" height="134" fill="#7B3F6B"/>
    <rect x="678" y="16" width="30" height="128" fill="#7C8F4A"/>
    <rect x="710" y="8" width="26" height="136" fill="#E8B4C8"/>
    <rect x="738" y="22" width="30" height="122" fill="#2E7D74"/>
    <rect x="770" y="12" width="24" height="132" fill="#D9A441"/>
    <rect x="796" y="18" width="30" height="126" fill="#B23A3A"/>
    <rect x="828" y="8" width="26" height="136" fill="#4FA8A0"/>
    <rect x="856" y="20" width="30" height="124" fill="#7B3F6B"/>
    <rect x="888" y="10" width="24" height="134" fill="#E8A33D"/>
    <rect x="914" y="16" width="30" height="128" fill="#7C8F4A"/>
    <rect x="946" y="8" width="26" height="136" fill="#E8B4C8"/>
    <rect x="974" y="20" width="30" height="124" fill="#2E7D74"/>
    <rect x="1006" y="10" width="24" height="134" fill="#B23A3A"/>
    <rect x="1032" y="18" width="30" height="126" fill="#D9A441"/>
    <rect x="1064" y="8" width="26" height="136" fill="#4FA8A0"/>
    <rect x="1092" y="20" width="30" height="124" fill="#7B3F6B"/>
    <rect x="1124" y="10" width="24" height="134" fill="#7C8F4A"/>
    <rect x="1150" y="16" width="30" height="128" fill="#E8A33D"/>
    <rect x="1182" y="8" width="26" height="136" fill="#B23A3A"/>
    <rect x="1210" y="20" width="30" height="124" fill="#E8B4C8"/>
    <rect x="1242" y="10" width="24" height="134" fill="#2E7D74"/>
  </g>

  <!-- Row 2 (166-330) -->
  <g>
    <rect x="560" y="188" width="30" height="142" fill="#7B3F6B"/>
    <rect x="592" y="178" width="26" height="152" fill="#7C8F4A"/>
    <rect x="620" y="192" width="30" height="138" fill="#E8A33D"/>
    <rect x="652" y="180" width="24" height="150" fill="#4FA8A0"/>
    <rect x="678" y="196" width="30" height="134" fill="#B23A3A"/>
    <g transform="rotate(-9 726 260)">
      <rect x="710" y="186" width="28" height="144" fill="#D9A441"/>
    </g>
    <rect x="744" y="178" width="26" height="152" fill="#2E7D74"/>
    <rect x="772" y="192" width="30" height="138" fill="#E8B4C8"/>
    <rect x="804" y="180" width="24" height="150" fill="#7B3F6B"/>
    <rect x="830" y="196" width="30" height="134" fill="#7C8F4A"/>
    <rect x="862" y="178" width="26" height="152" fill="#B23A3A"/>
    <rect x="890" y="192" width="30" height="138" fill="#4FA8A0"/>
    <g transform="rotate(8 938 260)">
      <rect x="924" y="186" width="28" height="144" fill="#E8A33D"/>
    </g>
    <rect x="958" y="178" width="26" height="152" fill="#7B3F6B"/>
    <rect x="986" y="192" width="30" height="138" fill="#2E7D74"/>
    <rect x="1018" y="180" width="24" height="150" fill="#D9A441"/>
    <rect x="1044" y="196" width="30" height="134" fill="#E8B4C8"/>
    <rect x="1076" y="178" width="26" height="152" fill="#7C8F4A"/>
    <rect x="1104" y="192" width="30" height="138" fill="#B23A3A"/>
    <rect x="1136" y="180" width="24" height="150" fill="#4FA8A0"/>
    <rect x="1162" y="196" width="30" height="134" fill="#7B3F6B"/>
    <rect x="1194" y="178" width="26" height="152" fill="#E8A33D"/>
    <rect x="1222" y="192" width="30" height="138" fill="#2E7D74"/>
  </g>

  <!-- Row 3 (346-500) -->
  <g>
    <rect x="560" y="368" width="28" height="118" fill="#E8B4C8"/>
    <rect x="590" y="360" width="24" height="126" fill="#2E7D74"/>
    <rect x="616" y="372" width="28" height="114" fill="#D9A441"/>
    <rect x="646" y="362" width="22" height="124" fill="#7B3F6B"/>
    <rect x="670" y="374" width="28" height="112" fill="#4FA8A0"/>
    <rect x="700" y="364" width="24" height="122" fill="#E8A33D"/>
    <rect x="726" y="372" width="28" height="114" fill="#7C8F4A"/>
    <rect x="756" y="360" width="24" height="126" fill="#B23A3A"/>
    <rect x="782" y="374" width="28" height="112" fill="#4FA8A0"/>
    <rect x="812" y="364" width="24" height="122" fill="#D9A441"/>
    <rect x="838" y="372" width="28" height="114" fill="#7B3F6B"/>
    <rect x="868" y="362" width="22" height="124" fill="#E8B4C8"/>
    <rect x="892" y="374" width="28" height="112" fill="#2E7D74"/>
    <rect x="922" y="364" width="24" height="122" fill="#E8A33D"/>
    <rect x="948" y="372" width="28" height="114" fill="#B23A3A"/>
    <rect x="978" y="360" width="24" height="126" fill="#7C8F4A"/>
    <rect x="1004" y="374" width="28" height="112" fill="#4FA8A0"/>
    <rect x="1034" y="364" width="24" height="122" fill="#7B3F6B"/>
    <rect x="1060" y="372" width="28" height="114" fill="#D9A441"/>
    <rect x="1090" y="362" width="22" height="124" fill="#E8B4C8"/>
    <rect x="1114" y="374" width="28" height="112" fill="#2E7D74"/>
    <rect x="1144" y="364" width="24" height="122" fill="#E8A33D"/>
    <rect x="1170" y="372" width="28" height="114" fill="#7C8F4A"/>
    <rect x="1200" y="360" width="24" height="126" fill="#B23A3A"/>
    <rect x="1226" y="374" width="28" height="112" fill="#4FA8A0"/>
  </g>

  <!-- Row 4 (516-640) -->
  <g>
    <rect x="560" y="534" width="28" height="94" fill="#B23A3A"/>
    <rect x="590" y="526" width="24" height="102" fill="#D9A441"/>
    <rect x="616" y="536" width="28" height="92" fill="#7C8F4A"/>
    <rect x="646" y="528" width="22" height="100" fill="#E8B4C8"/>
    <rect x="670" y="534" width="28" height="94" fill="#2E7D74"/>
    <rect x="700" y="526" width="24" height="102" fill="#4FA8A0"/>
    <rect x="726" y="536" width="28" height="92" fill="#B23A3A"/>
    <rect x="756" y="528" width="24" height="100" fill="#7B3F6B"/>
    <rect x="782" y="534" width="28" height="94" fill="#E8A33D"/>
    <rect x="812" y="526" width="24" height="102" fill="#7C8F4A"/>
    <rect x="838" y="536" width="28" height="92" fill="#4FA8A0"/>
    <rect x="868" y="528" width="22" height="100" fill="#B23A3A"/>
    <rect x="892" y="534" width="28" height="94" fill="#7B3F6B"/>
    <rect x="922" y="526" width="24" height="102" fill="#2E7D74"/>
    <rect x="948" y="536" width="28" height="92" fill="#E8B4C8"/>
    <rect x="978" y="528" width="24" height="100" fill="#D9A441"/>
    <rect x="1004" y="534" width="28" height="94" fill="#7C8F4A"/>
    <rect x="1034" y="526" width="24" height="102" fill="#E8A33D"/>
    <rect x="1060" y="536" width="28" height="92" fill="#4FA8A0"/>
    <rect x="1090" y="528" width="22" height="100" fill="#7B3F6B"/>
    <rect x="1114" y="534" width="28" height="94" fill="#B23A3A"/>
    <rect x="1144" y="526" width="24" height="102" fill="#7C8F4A"/>
    <rect x="1170" y="536" width="28" height="92" fill="#D9A441"/>
    <rect x="1200" y="528" width="24" height="100" fill="#2E7D74"/>
    <rect x="1226" y="534" width="28" height="94" fill="#E8B4C8"/>
  </g>

  <!-- ═════ LEFT SOLID PANEL — smooth flowing wave, no circles (matches reference shape) ═════ -->
  <path d="M 0,0 L 940,0
           C 1020,40 1000,90 900,110
           C 700,150 640,110 560,170
           C 480,230 480,300 620,330
           C 760,360 800,330 760,400
           C 720,470 560,430 520,480
           C 480,530 520,580 640,600
           C 720,615 700,640 600,640
           L 0,640 Z"
        fill="#F2D9BC"/>
</svg>
